<?xml version="1.0" encoding="utf-8"?>
<!-- Generator: Adobe Illustrator 22.0.1, SVG Export Plug-In . SVG Version: 6.00 Build 0)  -->
<svg version="1.0" id="Слой_1" xmlns="http://www.w3.org/2000/svg" xmlns:xlink="http://www.w3.org/1999/xlink" x="0px" y="0px"
	 width="228px" height="56px" viewBox="0 0 228 56" style="enable-background:new 0 0 228 56;" xml:space="preserve">
<style type="text/css">
	.st0{fill: current;}
</style>
<desc>Created with Sketch.</desc>
<g id="Symbols">
	<g id="TOP-menu" transform="translate(-95.000000, -21.000000)">
		<g id="horizontal_tagline_on_white_curves_by_logaster" transform="translate(95.000000, 21.000000)">
			<path id="rnd1" class="st0" d="M65.8,2.6L42.4,15l-25-13.3L14.1,0v14.5L3.7,9L0.5,7.3v3.7v26.2V40l28.2,15l28.1-14.9l13.7-7.3
				V3.9V0.1L65.8,2.6z M28.7,51.2l-25-13.3v-2.5V12.8l4.4,2.3l6.1,3.2v14.4l24.6,13.1L28.7,51.2z M67.2,28.1v2.6L42.4,43.9l-25-13.3
				V5.6l4.4,2.3l20.6,10.9L67.2,5.6L67.2,28.1L67.2,28.1z"/>
			<g id="text10" transform="translate(90.457179, 3.000000)">
				<polygon id="path3760" class="st0" points="8.9,0.4 8.9,2.9 2.7,2.9 2.7,18.6 0,18.6 0,0.4 				"/>
				<path id="path3762" class="st0" d="M20.6,17.3c-1,1.1-2.4,1.6-4.2,1.6c-1.8,0-3.2-0.5-4.2-1.6c-1-1.1-1.5-2.6-1.5-4.5V6.2
					c0-1.9,0.5-3.4,1.5-4.5c1-1.1,2.4-1.6,4.2-1.6c1.8,0,3.2,0.5,4.2,1.6c1,1.1,1.5,2.6,1.5,4.5v6.7C22.1,14.7,21.6,16.2,20.6,17.3z
					 M16.4,16.4c1,0,1.7-0.3,2.2-0.9s0.7-1.5,0.7-2.6V6.2c0-1.1-0.2-2-0.7-2.6c-0.5-0.6-1.2-0.9-2.2-0.9c-2,0-2.9,1.2-2.9,3.5v6.7
					C13.5,15.2,14.5,16.4,16.4,16.4z"/>
				<path id="path3764" class="st0" d="M30.2,0.4c1.8,0,3.2,0.5,4.2,1.6c1,1,1.5,2.5,1.5,4.3c0,1.9-0.5,3.4-1.5,4.4
					s-2.4,1.5-4.2,1.5H28v6.4h-2.7V0.4L30.2,0.4L30.2,0.4z M30.2,9.7c2,0,3-1.1,3-3.4c0-2.3-1-3.4-3-3.4H28v6.8H30.2z"/>
				<path id="path3766" class="st0" d="M38.3,18.6V0.4h2.6v8c0,1.8-0.1,3.6-0.3,5.3l0.1,0.1c0.6-1.6,1.1-2.7,1.3-3.2l4.5-10.1h2.7
					v18.2h-2.6v-7.9c0-1.8,0.1-3.5,0.2-5.3l-0.1-0.1c-0.5,1.4-1,2.6-1.3,3.4l-4.5,10L38.3,18.6z"/>
				<path id="path3768" class="st0" d="M60.1,9.2c2.1,0.6,3.2,2.1,3.2,4.4c0,1.7-0.5,3-1.6,3.9c-1.1,1-2.4,1.5-4.1,1.5
					c-1.7,0-3.1-0.5-4.2-1.6c-1-1.1-1.6-2.4-1.7-4h2.7c0.1,0.9,0.3,1.6,0.9,2.2s1.3,0.9,2.2,0.9c0.9,0,1.6-0.3,2.2-0.8
					c0.6-0.5,0.9-1.3,0.9-2.2c0-1-0.3-1.7-0.9-2.2s-1.4-0.8-2.4-0.8h-1.4V8.1H57c2.1,0,3.1-1,3.1-2.9c0-0.8-0.2-1.5-0.7-2
					c-0.4-0.5-1.1-0.7-1.9-0.7c-1.8,0-2.7,1-2.8,3.1h-2.7c0.1-1.7,0.6-3.1,1.5-4.1S55.9,0,57.5,0c1.6,0,2.9,0.5,3.9,1.4
					c1,0.9,1.4,2.2,1.4,3.8C62.9,7.2,61.9,8.5,60.1,9.2z"/>
				<path id="path3770" class="st0" d="M75.4,17.3c-1,1.1-2.4,1.6-4.2,1.6S68,18.4,67,17.3c-1-1.1-1.5-2.6-1.5-4.5V6.2
					c0-1.9,0.5-3.4,1.5-4.5c1-1.1,2.4-1.6,4.2-1.6s3.2,0.5,4.2,1.6c1,1.1,1.5,2.6,1.5,4.5v6.7C76.9,14.7,76.4,16.2,75.4,17.3z
					 M71.2,16.4c1,0,1.7-0.3,2.2-0.9c0.5-0.6,0.7-1.5,0.7-2.6V6.2c0-1.1-0.2-2-0.7-2.6c-0.5-0.6-1.2-0.9-2.2-0.9
					c-2,0-2.9,1.2-2.9,3.5v6.7C68.2,15.2,69.2,16.4,71.2,16.4z"/>
				<polygon id="path3772" class="st0" points="88,0.4 90.7,0.4 90.7,18.6 88,18.6 88,10.6 82.8,10.6 82.8,18.6 80.1,18.6 80.1,0.4 
					82.8,0.4 82.8,8.1 88,8.1 				"/>
				<polygon id="path3774" class="st0" points="103.5,0.4 103.5,2.9 99.6,2.9 99.6,18.6 96.9,18.6 96.9,2.9 93,2.9 93,0.4 				"/>
				<polygon id="path3776" class="st0" points="103.6,13 103.6,10.8 110.1,10.8 110.1,13 				"/>
				<path id="path3778" class="st0" d="M121.1,9.2c0.8,0.3,1.4,0.9,1.9,1.6c0.5,0.7,0.7,1.6,0.7,2.6c0,1.6-0.5,2.9-1.5,3.8
					c-1,0.9-2.3,1.4-3.9,1.4H113V0.4h5.1c1.5,0,2.7,0.4,3.6,1.4c0.9,0.9,1.4,2.1,1.4,3.6C123,7.2,122.4,8.5,121.1,9.2z M117.7,2.9
					h-2.1v5.2h2.1c1.6,0,2.5-0.9,2.5-2.7C120.3,3.7,119.4,2.9,117.7,2.9z M118,16.1c2,0,3-0.9,3-2.7c0-0.9-0.3-1.6-0.8-2.1
					c-0.6-0.5-1.3-0.7-2.3-0.7h-2.2v5.6H118z"/>
				<path id="path3780" class="st0" d="M131.4,18.9c-1.7,0-3-0.5-4-1.5c-1-1-1.4-2.4-1.4-4.2V5.7c0-1.8,0.5-3.2,1.4-4.2
					c1-1,2.3-1.5,3.9-1.5c1.7,0,3,0.5,4,1.5c1,1,1.5,2.3,1.5,4.1h-2.7c-0.2-2.1-1.1-3.1-2.9-3.1c-0.8,0-1.5,0.3-1.9,0.8
					c-0.5,0.5-0.7,1.3-0.7,2.4v7.5c0,1.1,0.2,1.9,0.7,2.4c0.5,0.5,1.1,0.8,2,0.8c1.8,0,2.8-1,3-3.1h2.7c-0.1,1.8-0.6,3.2-1.6,4.1
					C134.4,18.5,133.1,18.9,131.4,18.9z"/>
			</g>
			<g id="text14" transform="translate(90.457179, 32.000000)">
				<polygon id="path3783" class="st0" points="3.8,9 3.8,7.8 0,7.8 0,0.6 1.1,0.6 1.1,6.8 3.1,6.8 3.1,0.6 4.2,0.6 4.2,6.8 
					4.8,6.8 4.8,9 3.8,9 				"/>
				<path id="path3785" class="st0" d="M7.4,7.8V0.6h1v3.1c0,0.7,0,1.4-0.1,2.1l0,0c0.2-0.6,0.4-1.1,0.5-1.3l1.8-4h1.1v7.2h-1V4.7
					c0-0.7,0-1.4,0.1-2.1l0,0c-0.2,0.6-0.4,1-0.5,1.3L8.4,7.8H7.4z"/>
				<path id="path3787" class="st0" d="M17,8.4V7.6h-0.2c-0.8,0-1.4-0.2-1.8-0.7c-0.5-0.5-0.7-1.1-0.7-1.9V3.4
					c0-0.8,0.2-1.5,0.7-1.9c0.5-0.5,1.1-0.7,1.8-0.7H17V0h1.1v0.8h0.2c0.8,0,1.4,0.2,1.8,0.7c0.5,0.5,0.7,1.1,0.7,1.9V5
					c0,0.8-0.2,1.5-0.7,1.9c-0.5,0.5-1.1,0.7-1.8,0.7h-0.2v0.8H17z M16.8,6.6H17V1.8h-0.2c-0.9,0-1.4,0.5-1.4,1.7V5
					c0,0.5,0.1,1,0.4,1.2C16,6.5,16.4,6.6,16.8,6.6z M18.1,6.6h0.2c1,0,1.4-0.5,1.4-1.6V3.4c0-1.1-0.5-1.7-1.4-1.7h-0.2V6.6z"/>
				<path id="path3789" class="st0" d="M25.4,0.6c0.7,0,1.3,0.2,1.7,0.6s0.6,1,0.6,1.7c0,0.7-0.2,1.3-0.6,1.7
					c-0.4,0.4-1,0.6-1.7,0.6h-0.9v2.5h-1.1V0.6H25.4z M25.3,4.3c0.8,0,1.2-0.5,1.2-1.4c0-0.9-0.4-1.3-1.2-1.3h-0.9v2.7L25.3,4.3
					L25.3,4.3z"/>
				<path id="path3791" class="st0" d="M34,7.3c-0.4,0.4-1,0.6-1.7,0.6c-0.7,0-1.3-0.2-1.7-0.6c-0.4-0.4-0.6-1-0.6-1.8V2.9
					c0-0.7,0.2-1.3,0.6-1.8c0.4-0.4,1-0.6,1.7-0.6c0.7,0,1.3,0.2,1.7,0.6c0.4,0.4,0.6,1,0.6,1.8v2.6C34.6,6.3,34.4,6.9,34,7.3z
					 M32.3,6.9c0.4,0,0.7-0.1,0.9-0.4s0.3-0.6,0.3-1V2.9c0-0.5-0.1-0.8-0.3-1s-0.5-0.4-0.9-0.4c-0.8,0-1.2,0.5-1.2,1.4v2.6
					C31.2,6.4,31.5,6.9,32.3,6.9z"/>
				<path id="path3793" class="st0" d="M40.6,4.1c0.3,0.1,0.6,0.3,0.7,0.6c0.2,0.3,0.3,0.6,0.3,1c0,0.6-0.2,1.1-0.6,1.5
					c-0.4,0.4-0.9,0.5-1.5,0.5h-2.1V0.6h2c0.6,0,1.1,0.2,1.4,0.5c0.4,0.4,0.5,0.8,0.5,1.4C41.4,3.3,41.1,3.8,40.6,4.1z M39.3,1.6
					h-0.8v2.1h0.8c0.6,0,1-0.4,1-1.1C40.3,1.9,39.9,1.6,39.3,1.6z M39.4,6.8c0.8,0,1.2-0.4,1.2-1.1c0-0.4-0.1-0.6-0.3-0.8
					c-0.2-0.2-0.5-0.3-0.9-0.3h-0.9v2.2H39.4z"/>
				<path id="path3795" class="st0" d="M48,7.3c-0.4,0.4-1,0.6-1.7,0.6s-1.3-0.2-1.7-0.6c-0.4-0.4-0.6-1-0.6-1.8V2.9
					c0-0.7,0.2-1.3,0.6-1.8c0.4-0.4,1-0.6,1.7-0.6s1.3,0.2,1.7,0.6c0.4,0.4,0.6,1,0.6,1.8v2.6C48.6,6.3,48.4,6.9,48,7.3z M46.4,6.9
					c0.4,0,0.7-0.1,0.9-0.4s0.3-0.6,0.3-1V2.9c0-0.5-0.1-0.8-0.3-1s-0.5-0.4-0.9-0.4c-0.8,0-1.2,0.5-1.2,1.4v2.6
					C45.2,6.4,45.6,6.9,46.4,6.9z"/>
				<polygon id="path3797" class="st0" points="52.5,6.8 55.2,6.8 55.2,7.8 51.4,7.8 51.4,0.6 55.1,0.6 55.1,1.6 52.5,1.6 52.5,3.7 
					54.9,3.7 54.9,4.6 52.5,4.6 				"/>
				<path id="path3799" class="st0" d="M63.7,3.4c0.7,0,1.2,0.2,1.6,0.6C65.8,4.4,66,4.9,66,5.6c0,0.7-0.2,1.3-0.6,1.6
					c-0.4,0.4-0.9,0.5-1.6,0.5h-2V0.6h3.8v1h-2.8v1.9H63.7z M63.7,6.8c0.4,0,0.7-0.1,0.9-0.3c0.2-0.2,0.3-0.5,0.3-0.9
					s-0.1-0.7-0.3-0.9c-0.2-0.2-0.5-0.3-0.9-0.3h-0.9v2.4H63.7z"/>
				<path id="path3801" class="st0" d="M71.2,0.6h1.1l-1.8,5.7c-0.2,0.6-0.4,1-0.7,1.3c-0.3,0.2-0.7,0.4-1.3,0.4h-0.3V7h0.3
					c0.3,0,0.5-0.1,0.6-0.2s0.3-0.4,0.4-0.8l0.1-0.3l-1.9-5.1h1.1l1.2,3.5L71.2,0.6z"/>
				<path id="path3803" class="st0" d="M78.3,6.8H79V9h-1V7.8h-3.5V9h-1V6.8h0.4c0.5-0.5,0.8-1.4,0.8-2.7l0.1-3.5h3.5L78.3,6.8
					L78.3,6.8z M77.3,6.8V1.6h-1.5l-0.1,2.8c0,1-0.2,1.9-0.6,2.4H77.3z"/>
				<path id="path3805" class="st0" d="M84.2,0.6h1.1l-1.8,5.7c-0.2,0.6-0.4,1-0.7,1.3s-0.7,0.4-1.3,0.4h-0.3V7h0.3
					c0.3,0,0.5-0.1,0.6-0.2c0.1-0.2,0.3-0.4,0.4-0.8l0.1-0.3l-1.9-5.1H82l1.2,3.5L84.2,0.6z"/>
				<polygon id="path3807" class="st0" points="94.6,6.8 95.3,6.8 95.3,9 94.3,9 94.3,7.8 87.7,7.8 87.7,0.6 88.7,0.6 88.7,6.8 
					90.6,6.8 90.6,0.6 91.7,0.6 91.7,6.8 93.6,6.8 93.6,0.6 94.6,0.6 				"/>
				<polygon id="path3809" class="st0" points="98.9,6.8 101.5,6.8 101.5,7.8 97.8,7.8 97.8,0.6 101.4,0.6 101.4,1.6 98.9,1.6 
					98.9,3.7 101.2,3.7 101.2,4.6 98.9,4.6 				"/>
				<polygon id="path3811" class="st0" points="105.3,6.8 108,6.8 108,7.8 104.3,7.8 104.3,0.6 107.9,0.6 107.9,1.6 105.3,1.6 
					105.3,3.7 107.7,3.7 107.7,4.6 105.3,4.6 				"/>
			</g>
			<g id="text18" transform="translate(89.457179, 47.000000)">
				<polygon id="path3814" class="st0" points="3.2,0.1 4.2,0.1 4.2,7.7 3.2,7.7 3.2,4.4 1.1,4.4 1.1,7.7 0,7.7 0,0.1 1.1,0.1 
					1.1,3.4 3.2,3.4 				"/>
				<path id="path3816" class="st0" d="M10.4,7.7L10,6.2H8.1L7.7,7.7H6.6l1.9-7.6h1.1l1.9,7.6H10.4z M8.3,5.2h1.5l-0.5-2
					c-0.1-0.5-0.2-1-0.3-1.6h0C8.9,2.2,8.9,2.7,8.8,3.1L8.3,5.2z"/>
				<path id="path3818" class="st0" d="M16.4,0.1h1.1v7.6h-1.1V4.9c-0.3,0.1-0.6,0.2-1,0.2c-0.7,0-1.2-0.2-1.6-0.6
					c-0.4-0.4-0.6-1-0.6-1.8V0.1h1.1v2.6c0,0.9,0.4,1.3,1.2,1.3c0.3,0,0.6-0.1,0.9-0.2L16.4,0.1z"/>
				<path id="path3820" class="st0" d="M20.6,7.7V0.1h1v3.3c0,0.8,0,1.5-0.1,2.2l0,0c0.2-0.7,0.4-1.1,0.5-1.3l1.8-4.2h1.1v7.6h-1
					V4.4c0-0.7,0-1.5,0.1-2.2l0,0c-0.2,0.6-0.4,1.1-0.5,1.4l-1.8,4.1L20.6,7.7L20.6,7.7z"/>
				<polygon id="path3822" class="st0" points="31.2,0.1 32.2,0.1 32.2,7.7 31.2,7.7 31.2,4.4 29.1,4.4 29.1,7.7 28,7.7 28,0.1 
					29.1,0.1 29.1,3.4 31.2,3.4 				"/>
				<path id="path3824" class="st0" d="M38.4,7.7L38,6.2h-2l-0.3,1.5h-1.1l1.9-7.6h1.1l1.9,7.6H38.4z M36.3,5.2h1.5l-0.5-2
					c-0.1-0.5-0.2-1-0.3-1.6h0c-0.1,0.7-0.2,1.2-0.3,1.6L36.3,5.2z"/>
				<polygon id="path3826" class="st0" points="43,6.7 45.6,6.7 45.6,7.7 41.9,7.7 41.9,0.1 45.5,0.1 45.5,1.2 43,1.2 43,3.4 
					45.3,3.4 45.3,4.4 43,4.4 				"/>
				<polygon id="path3828" class="st0" points="51.9,0.1 51.9,1.2 50.4,1.2 50.4,7.7 49.3,7.7 49.3,1.2 47.8,1.2 47.8,0.1 				"/>
				<path id="path3830" class="st0" d="M56.4,7.8c-0.7,0-1.2-0.2-1.6-0.6c-0.4-0.4-0.6-1-0.6-1.7V2.4c0-0.8,0.2-1.3,0.6-1.7
					C55.2,0.2,55.7,0,56.4,0C57,0,57.6,0.2,58,0.6c0.4,0.4,0.6,1,0.6,1.7h-1.1C57.4,1.5,57.1,1,56.4,1c-0.3,0-0.6,0.1-0.8,0.3
					c-0.2,0.2-0.3,0.6-0.3,1v3.1c0,0.4,0.1,0.8,0.3,1c0.2,0.2,0.5,0.3,0.8,0.3c0.7,0,1.1-0.4,1.2-1.3h1.1c0,0.7-0.2,1.3-0.6,1.7
					C57.6,7.6,57.1,7.8,56.4,7.8z"/>
				<path id="path3832" class="st0" d="M60.7,7.7l1.6-2.9c-0.4-0.1-0.8-0.4-1-0.8c-0.2-0.4-0.3-0.9-0.3-1.4c0-0.8,0.2-1.4,0.6-1.8
					c0.4-0.4,0.9-0.6,1.6-0.6H65v7.6H64V5h-0.7l-1.5,2.7H60.7z M63.1,3.9H64V1.2h-0.8c-0.8,0-1.1,0.5-1.1,1.4c0,0.5,0.1,0.8,0.3,1
					C62.5,3.8,62.8,3.9,63.1,3.9z"/>
				<path id="path3834" class="st0" d="M73.9,7.8c-0.7,0-1.2-0.2-1.6-0.6c-0.4-0.4-0.6-1-0.6-1.7V2.4c0-0.8,0.2-1.3,0.6-1.7
					C72.7,0.2,73.2,0,73.9,0c0.7,0,1.2,0.2,1.6,0.6s0.6,1,0.6,1.7H75C75,1.5,74.6,1,73.9,1c-0.3,0-0.6,0.1-0.8,0.3
					c-0.2,0.2-0.3,0.6-0.3,1v3.1c0,0.4,0.1,0.8,0.3,1c0.2,0.2,0.5,0.3,0.8,0.3c0.7,0,1.1-0.4,1.2-1.3h1.1c0,0.7-0.2,1.3-0.6,1.7
					C75.1,7.6,74.6,7.8,73.9,7.8z"/>
				<polygon id="path3836" class="st0" points="79.8,6.7 82.5,6.7 82.5,7.7 78.7,7.7 78.7,0.1 82.4,0.1 82.4,1.2 79.8,1.2 79.8,3.4 
					82.2,3.4 82.2,4.4 79.8,4.4 				"/>
				<polygon id="path3838" class="st0" points="88.7,0.1 88.7,1.2 86.3,1.2 86.3,7.7 85.2,7.7 85.2,0.1 				"/>
				<path id="path3840" class="st0" d="M94.9,7.2c-0.4,0.4-1,0.7-1.7,0.7c-0.7,0-1.3-0.2-1.7-0.7C91.2,6.7,91,6.1,91,5.3V2.5
					c0-0.8,0.2-1.4,0.6-1.9C92,0.2,92.6,0,93.3,0c0.7,0,1.3,0.2,1.7,0.7c0.4,0.4,0.6,1.1,0.6,1.9v2.8C95.5,6.1,95.3,6.7,94.9,7.2z
					 M93.3,6.8c0.4,0,0.7-0.1,0.9-0.4c0.2-0.3,0.3-0.6,0.3-1.1V2.5c0-0.5-0.1-0.8-0.3-1.1s-0.5-0.4-0.9-0.4c-0.8,0-1.2,0.5-1.2,1.5
					v2.8C92.1,6.3,92.5,6.8,93.3,6.8z"/>
				<path id="path3842" class="st0" d="M102.7,6.7h0.7V9h-1V7.7h-3.5V9h-1V6.7h0.4c0.5-0.5,0.8-1.5,0.8-2.9l0.1-3.7h3.6L102.7,6.7
					L102.7,6.7z M101.6,6.7V1.2h-1.5L100,4.1c0,1.1-0.2,2-0.6,2.6H101.6z"/>
				<polygon id="path3844" class="st0" points="109,0.1 110.1,0.1 110.1,7.7 109,7.7 109,4.4 106.9,4.4 106.9,7.7 105.8,7.7 
					105.8,0.1 106.9,0.1 106.9,3.4 109,3.4 				"/>
				<path id="path3846" class="st0" d="M112.6,7.7l1.6-2.9c-0.4-0.1-0.8-0.4-1-0.8c-0.2-0.4-0.3-0.9-0.3-1.4c0-0.8,0.2-1.4,0.6-1.8
					c0.4-0.4,0.9-0.6,1.6-0.6h1.9v7.6h-1.1V5h-0.7l-1.5,2.7H112.6z M115,3.9h0.8V1.2h-0.8c-0.8,0-1.1,0.5-1.1,1.4
					c0,0.5,0.1,0.8,0.3,1C114.4,3.8,114.7,3.9,115,3.9z"/>
			</g>
		</g>
	</g>
</g>
</svg>
